<?xml version='1.0' encoding='UTF-8' standalone='no'?>
<!-- Created with Fritzing (http://www.fritzing.org/) -->
<svg xmlns="http://www.w3.org/2000/svg" x="0in" height="0.9in" version="1.2" baseProfile="tiny" width="2.25626in" viewBox="0 0 162.451 64.8" y="0in" >
    <desc >
        <referenceFile >Adafruit HUZZAH32 ESP32 Feather_pcb.svg</referenceFile>
    </desc>
    <desc >Fritzing footprint generated by brd2svg</desc>
    <g id="silkscreen" gorn="0.2" >
        <path fill="none" d="M8.74764,64.512A6.912,6.912,0,0,1,1.57319,57.376L1.57319,39.536L3.00809,38.1088L3.00809,26.6912L1.57319,25.264L1.57319,7.42399A6.912,6.912,0,0,1,8.74764,0.288L137.888,0.288A6.912,6.912,0,0,1,145.063,7.42399L145.063,57.376A6.912,6.912,0,0,1,137.888,64.512L8.74764,64.512M13.1856,26.8724a0.704126,0.704126,0,1,0,1.40826,0,0.704126,0.704126,0,1,0,-1.40826,0zM13.1856,37.9276a0.704126,0.704126,0,1,0,1.40826,0,0.704126,0.704126,0,1,0,-1.40826,0zM135.26,59.58a2.83011,2.83011,0,1,0,5.66022,0,2.83011,2.83011,0,1,0,-5.66022,0zM135.26,5.4a2.83011,2.83011,0,1,0,5.66022,0,2.83011,2.83011,0,1,0,-5.66022,0z" stroke="white" stroke-width="0.576" />
        <g >
            <title >element:JP1</title>
            <g >
                <title >package:1X16_ROUND_MIN</title>
            </g>
        </g>
        <g >
            <title >element:JP3</title>
            <g >
                <title >package:1X12_ROUND_MIN</title>
            </g>
        </g>
        <g >
            <title >element:U$9</title>
            <g >
                <title >package:FEATHERLOGO_MED</title>
            </g>
        </g>
        <g >
            <title >element:U$43</title>
            <g >
                <title >package:HUZZAH32</title>
            </g>
        </g>
        <g >
            <title >element:X1</title>
            <g >
                <title >package:JSTPH2</title>
                <line y1="1.57607" stroke-linecap="round" y2="1.57607" x1="25.5118" x2="38.2677" stroke="white" stroke-width="0.576" />
                <line y1="11.4973" stroke-linecap="round" y2="22.8359" x1="43.2284" x2="43.2284" stroke="white" stroke-width="0.576" />
                <line y1="22.8359" stroke-linecap="round" y2="22.8359" x1="43.2284" x2="40.8189" stroke="white" stroke-width="0.576" />
                <line y1="22.8359" stroke-linecap="round" y2="15.7493" x1="40.8189" x2="40.8189" stroke="white" stroke-width="0.576" />
                <line y1="15.7493" stroke-linecap="round" y2="15.7493" x1="40.8189" x2="36.8504" stroke="white" stroke-width="0.576" />
                <line y1="15.7493" stroke-linecap="round" y2="15.7493" x1="26.9292" x2="22.9607" stroke="white" stroke-width="0.576" />
                <line y1="15.7493" stroke-linecap="round" y2="22.8359" x1="22.9607" x2="22.9607" stroke="white" stroke-width="0.576" />
                <line y1="22.8359" stroke-linecap="round" y2="22.8359" x1="22.9607" x2="20.5512" stroke="white" stroke-width="0.576" />
                <line y1="22.8359" stroke-linecap="round" y2="11.4973" x1="20.5512" x2="20.5512" stroke="white" stroke-width="0.576" />
            </g>
        </g>
        <g >
            <title >element:X2</title>
            <g >
                <title >package:WROOM32_SKINNY</title>
            </g>
        </g>
        <g >
            <title >element:X4</title>
            <g >
                <title >package:4UCONN_20329_V2</title>
                <line y1="25.3134" stroke-linecap="round" y2="27.5811" x1="17.0078" x2="17.0078" stroke="white" stroke-width="0.36" />
                <line y1="37.2189" stroke-linecap="round" y2="39.4866" x1="17.0078" x2="17.0078" stroke="white" stroke-width="0.36" />
                <line y1="21.6284" stroke-linecap="round" y2="21.6284" x1="4.25197" x2="1.70078" stroke="white" stroke-width="0.36" />
                <line y1="21.6284" stroke-linecap="round" y2="43.1716" x1="1.70078" x2="1.70078" stroke="white" stroke-width="0.36" />
                <line y1="43.1716" stroke-linecap="round" y2="43.1716" x1="1.70078" x2="4.25197" stroke="white" stroke-width="0.36" />
            </g>
        </g>
        <line y1="46.715" fill-opacity="1" y2="46.715" fill="none" x1="0.288" x2="1.28976" stroke="white" stroke-width="0.576" />
        <line y1="18.085" fill-opacity="1" y2="18.085" fill="none" x1="0.288" x2="1.28976" stroke="white" stroke-width="0.576" />
        <line y1="46.715" fill-opacity="1" y2="18.085" fill="none" x1="0.288" x2="0.288" stroke="white" stroke-width="0.576" />
    </g>
    <g id="copper1" gorn="0.3" >
        <g id="copper0" gorn="0.3.0" >
            <circle id="connector109pad" cx="8.48974" gorn="0.3.0.0" r="4.26331" connectorname="P$1" fill="none" cy="57.6" stroke="#F7BD13" stroke-width="1.44" />
            <circle id="connector173pad" cx="8.50392" gorn="0.3.0.1" r="2.3478" connectorname="GND" fill="none" cy="22.1953" stroke="#F7BD13" stroke-width="2.14441" />
            <rect x="6.15614" height="4.69559" width="4.69559" y="19.8474" fill="none" stroke="#F7BD13" stroke-width="2.14441" />
            <circle id="connector171pad" cx="16.4409" gorn="0.3.0.3" r="1.49386" connectorname="GND" fill="none" cy="23.0457" stroke="#F7BD13" stroke-width="0.72" />
            <path fill="#F7BD13" d="m14.9471,20.058,2.98772,0,0,4.48158,-2.98772,0,0,-4.48158M14.9471,23.0457a1.49386,1.49386,0,1,0,2.98772,0,1.49386,1.49386,0,1,0,-2.98772,0zz" stroke="none" stroke-width="0" />
            <circle id="connector45pad" cx="127.29" gorn="0.3.0.5" r="1.7538" connectorname="IO21" fill="none" cy="61.2" stroke="#F7BD13" stroke-width="0.956412" />
            <circle id="connector46pad" cx="120.09" gorn="0.3.0.6" r="1.7538" connectorname="IO17" fill="none" cy="61.2" stroke="#F7BD13" stroke-width="0.956412" />
            <circle id="connector47pad" cx="112.89" gorn="0.3.0.7" r="1.7538" connectorname="IO16" fill="none" cy="61.2" stroke="#F7BD13" stroke-width="0.956412" />
            <circle id="connector48pad" cx="105.69" gorn="0.3.0.8" r="1.7538" connectorname="MISO" fill="none" cy="61.2" stroke="#F7BD13" stroke-width="0.956412" />
            <circle id="connector49pad" cx="98.4895" gorn="0.3.0.9" r="1.7538" connectorname="MOSI" fill="none" cy="61.2" stroke="#F7BD13" stroke-width="0.956412" />
            <circle id="connector50pad" cx="91.2895" gorn="0.3.0.10" r="1.7538" connectorname="SCK" fill="none" cy="61.2" stroke="#F7BD13" stroke-width="0.956412" />
            <circle id="connector51pad" cx="84.0895" gorn="0.3.0.11" r="1.7538" connectorname="A5_IO4" fill="none" cy="61.2" stroke="#F7BD13" stroke-width="0.956412" />
            <circle id="connector52pad" cx="76.8895" gorn="0.3.0.12" r="1.7538" connectorname="A4_IO36" fill="none" cy="61.2" stroke="#F7BD13" stroke-width="0.956412" />
            <circle id="connector53pad" cx="69.6897" gorn="0.3.0.13" r="1.7538" connectorname="A3_I39" fill="none" cy="61.2" stroke="#F7BD13" stroke-width="0.956412" />
            <circle id="connector108pad" cx="8.48974" gorn="0.3.0.14" r="4.26331" connectorname="P$1" fill="none" cy="7.2" stroke="#F7BD13" stroke-width="1.44" />
            <circle id="connector54pad" cx="62.4897" gorn="0.3.0.15" r="1.7538" connectorname="A2_I34" fill="none" cy="61.2" stroke="#F7BD13" stroke-width="0.956412" />
            <circle id="connector55pad" cx="55.2897" gorn="0.3.0.16" r="1.7538" connectorname="A1_DAC1" fill="none" cy="61.2" stroke="#F7BD13" stroke-width="0.956412" />
            <circle id="connector56pad" cx="48.0897" gorn="0.3.0.17" r="1.7538" connectorname="A0_DAC2" fill="none" cy="61.2" stroke="#F7BD13" stroke-width="0.956412" />
            <circle id="connector57pad" cx="40.8897" gorn="0.3.0.18" r="1.7538" connectorname="GND" fill="none" cy="61.2" stroke="#F7BD13" stroke-width="0.956412" />
            <circle id="connector58pad" cx="33.6897" gorn="0.3.0.19" r="1.7538" connectorname="14" fill="none" cy="61.2" stroke="#F7BD13" stroke-width="0.956412" />
            <circle id="connector59pad" cx="26.4897" gorn="0.3.0.20" r="1.7538" connectorname="3.3V" fill="none" cy="61.2" stroke="#F7BD13" stroke-width="0.956412" />
            <circle id="connector60pad" cx="19.2897" gorn="0.3.0.21" r="1.7538" connectorname="RESET" fill="none" cy="61.2" stroke="#F7BD13" stroke-width="0.956412" />
            <circle id="connector61pad" cx="48.0897" gorn="0.3.0.22" r="1.7538" connectorname="VBAT" fill="none" cy="3.6" stroke="#F7BD13" stroke-width="0.956412" />
            <circle id="connector62pad" cx="55.2897" gorn="0.3.0.23" r="1.7538" connectorname="EN" fill="none" cy="3.6" stroke="#F7BD13" stroke-width="0.956412" />
            <circle id="connector63pad" cx="62.4897" gorn="0.3.0.24" r="1.7538" connectorname="VBUS" fill="none" cy="3.6" stroke="#F7BD13" stroke-width="0.956412" />
            <circle id="connector64pad" cx="69.6897" gorn="0.3.0.25" r="1.7538" connectorname="IO13_A12" fill="none" cy="3.6" stroke="#F7BD13" stroke-width="0.956412" />
            <circle id="connector65pad" cx="76.8895" gorn="0.3.0.26" r="1.7538" connectorname="IO12_A11" fill="none" cy="3.6" stroke="#F7BD13" stroke-width="0.956412" />
            <circle id="connector66pad" cx="84.0895" gorn="0.3.0.27" r="1.7538" connectorname="IO27_A10" fill="none" cy="3.6" stroke="#F7BD13" stroke-width="0.956412" />
            <circle id="connector67pad" cx="91.2895" gorn="0.3.0.28" r="1.7538" connectorname="IO33_A9" fill="none" cy="3.6" stroke="#F7BD13" stroke-width="0.956412" />
            <circle id="connector68pad" cx="98.4895" gorn="0.3.0.29" r="1.7538" connectorname="IO15_A8" fill="none" cy="3.6" stroke="#F7BD13" stroke-width="0.956412" />
            <circle id="connector69pad" cx="105.69" gorn="0.3.0.30" r="1.7538" connectorname="IO32_A7" fill="none" cy="3.6" stroke="#F7BD13" stroke-width="0.956412" />
            <circle id="connector70pad" cx="112.89" gorn="0.3.0.31" r="1.7538" connectorname="IO14_A6" fill="none" cy="3.6" stroke="#F7BD13" stroke-width="0.956412" />
            <circle id="connector71pad" cx="120.09" gorn="0.3.0.32" r="1.7538" connectorname="SCL" fill="none" cy="3.6" stroke="#F7BD13" stroke-width="0.956412" />
            <circle id="connector72pad" cx="127.29" gorn="0.3.0.33" r="1.7538" connectorname="SDA" fill="none" cy="3.6" stroke="#F7BD13" stroke-width="0.956412" />
            <circle id="connector172pad" cx="16.4409" gorn="0.3.0.34" r="1.49386" connectorname="GND" fill="none" cy="41.7543" stroke="#F7BD13" stroke-width="0.72" />
            <path fill="#F7BD13" d="m14.9471,40.2605,2.98772,0,0,4.48158,-2.98772,0,0,-4.48158M14.9471,41.7543a1.49386,1.49386,0,1,0,2.98772,0,1.49386,1.49386,0,1,0,-2.98772,0zz" stroke="none" stroke-width="0" />
            <circle id="connector174pad" cx="8.50392" gorn="0.3.0.36" r="2.3478" connectorname="GND" fill="none" cy="42.6047" stroke="#F7BD13" stroke-width="2.14441" />
            <rect x="6.15614" height="4.69559" width="4.69559" y="40.2569" fill="none" stroke="#F7BD13" stroke-width="2.14441" />
        </g>
    </g>
</svg>
