<?xml version="1.0" encoding="UTF-8" standalone="no"?>
<!DOCTYPE svg PUBLIC "-//W3C//DTD SVG 20010904//EN"
              "http://www.w3.org/TR/2001/REC-SVG-20010904/DTD/svg10.dtd">

<svg xmlns="http://www.w3.org/2000/svg"
     width="11.1111in" height="8.33333in"
     viewBox="0 0 800 600">
  <path id="Selection"
        fill="none" stroke="black" stroke-width="1"
        d="M 279.45,207.00
           C 282.22,200.17 285.75,195.19 291.01,190.04
             307.71,173.70 330.23,174.00 352.00,174.00
             352.00,174.00 386.00,174.00 386.00,174.00
             386.00,174.00 418.00,174.00 418.00,174.00
             418.00,174.00 472.00,174.83 472.00,174.83
             484.13,176.05 495.25,178.28 505.00,186.33
             526.71,204.24 526.00,227.42 526.00,253.00
             526.00,253.00 422.00,253.00 422.00,253.00
             406.42,253.02 400.02,259.42 400.00,275.00
             400.00,275.00 400.00,316.00 400.00,316.00
             399.99,321.64 399.80,325.97 396.78,331.00
             389.46,343.18 370.41,345.27 360.18,335.67
             354.16,330.02 353.01,323.80 353.00,316.00
             353.00,316.00 353.00,282.00 353.00,282.00
             353.00,277.17 353.51,268.23 351.85,264.00
             347.79,253.62 336.20,250.33 328.53,259.18
             316.93,272.57 334.79,306.10 309.00,307.90
             301.59,308.42 293.73,304.56 291.57,297.00
             290.91,294.71 291.00,291.41 291.00,289.00
             290.98,273.73 293.98,256.15 274.00,253.00
             274.00,237.56 273.55,221.55 279.45,207.00 Z" />
</svg>
