<?xml version="1.0" encoding="UTF-8" standalone="no"?>
<!DOCTYPE svg PUBLIC "-//W3C//DTD SVG 20010904//EN"
              "http://www.w3.org/TR/2001/REC-SVG-20010904/DTD/svg10.dtd">

<svg xmlns="http://www.w3.org/2000/svg"
     width="3.33333in" height="3.33333in"
     viewBox="0 0 300 300">
  <path id="Selection #1"
        fill="none" stroke="black" stroke-width="1"
        d="M 116.00,89.07
           C 124.12,94.99 135.58,96.84 145.00,93.07
             151.15,90.61 154.37,86.61 160.00,84.00
             165.94,93.15 175.45,98.30 186.00,93.00
             191.10,90.44 192.59,87.27 195.17,86.58
             197.18,85.62 199.88,86.58 202.00,86.58
             206.03,87.27 209.09,86.95 213.00,86.00
             213.00,88.82 213.54,98.37 212.01,100.13
             208.93,104.07 198.00,100.90 194.00,100.13
             187.31,114.00 166.03,113.37 160.00,98.00
             160.00,98.00 158.00,98.00 158.00,98.00
             148.08,114.92 117.42,113.80 109.00,96.00
             98.28,102.68 96.10,104.10 84.00,99.00
             78.37,111.43 67.77,118.52 54.00,117.96
             50.51,117.82 43.07,116.66 41.02,113.58
             39.50,111.30 40.00,103.04 40.00,100.00
             44.66,101.05 49.17,102.80 54.00,102.96
             66.86,103.39 78.72,95.59 84.00,84.00
             94.77,87.58 97.64,89.36 107.00,81.00
             107.00,81.00 116.00,89.07 116.00,89.07 Z" />
</svg>
